PathFileType	4	(X/Y/Z)	..\data\2015043\dynamic\2015043_C4_04.trc
DataRate	CameraRate	NumFrames	NumMarkers	Units	OrigDataRate	OrigDataStartFrame	OrigNumFrames
100.000000	100.000000	4	52	mm	100.000000	29	232
Frame#	Time	L_IAS			L_IPS			R_IPS			R_IAS			L_FTC			L_FLE			L_FME			L_FAX			L_TTC			L_FAL			L_TAM			L_FCC			L_FM1			L_FM2			L_FM5			R_FTC			R_FLE			R_FME			R_FAX			R_TTC			R_FAL			R_TAM			R_FCC			R_FM1			R_FM2			R_FM5			CV7			TV10			SXS			SJN			L_SIA			L_SRS			L_SAA			L_SAE			L_HLE			L_HME			L_UOA			L_RSP			L_UHE			L_HM2			L_HM5			R_SIA			R_SRS			R_SAA			R_SAE			R_HLE			R_HME			R_UOA			R_RSP			R_UHE			R_HM2			R_HM5			
		X1	Y1	Z1	X2	Y2	Z2	X3	Y3	Z3	X4	Y4	Z4	X5	Y5	Z5	X6	Y6	Z6	X7	Y7	Z7	X8	Y8	Z8	X9	Y9	Z9	X10	Y10	Z10	X11	Y11	Z11	X12	Y12	Z12	X13	Y13	Z13	X14	Y14	Z14	X15	Y15	Z15	X16	Y16	Z16	X17	Y17	Z17	X18	Y18	Z18	X19	Y19	Z19	X20	Y20	Z20	X21	Y21	Z21	X22	Y22	Z22	X23	Y23	Z23	X24	Y24	Z24	X25	Y25	Z25	X26	Y26	Z26	X27	Y27	Z27	X28	Y28	Z28	X29	Y29	Z29	X30	Y30	Z30	X31	Y31	Z31	X32	Y32	Z32	X33	Y33	Z33	X34	Y34	Z34	X35	Y35	Z35	X36	Y36	Z36	X37	Y37	Z37	X38	Y38	Z38	X39	Y39	Z39	X40	Y40	Z40	X41	Y41	Z41	X42	Y42	Z42	X43	Y43	Z43	X44	Y44	Z44	X45	Y45	Z45	X46	Y46	Z46	X47	Y47	Z47	X48	Y48	Z48	X49	Y49	Z49	X50	Y50	Z50	X51	Y51	Z51	X52	Y52	Z52	

30	0.29	-943.4541015625002	1000.534606933594	132.3913574218749	-1130.145263671875	1012.437194824219	179.3126068115233	-1141.1865234375	1011.289794921875	276.4461975097656	-980.104431152344	992.358093261719	373.3508605957031	-1013.09375	907.5996093750002	63.18241500854482	-924.2052001953127	491.2125244140626	106.852569580078	-935.1483154296877	487.3947143554689	224.4552154541015	-930.908142089844	419.0999450683595	102.9058761596679	-876.7304687500002	414.283172607422	165.6277770996093	-956.2708740234377	78.58956909179689	169.6719818115234	-926.1245727539065	90.24736785888673	259.8215942382812	-1003.862670898438	25.90913200378419	216.1194763183593	-799.0393066406252	19.068359375	232.4889221191406	-798.8645629882815	37.72031784057618	170.6352844238281	-855.7271118164065	26.67083168029786	124.0813980102538	-1093.194702148438	897.9190673828127	401.3990783691406	-1087.30517578125	483.863006591797	410.1677856445312	-1038.550170898438	459.5335083007814	294.8147888183593	-1130.009521484375	439.0862426757814	412.8010864257812	-1071.344482421875	380.3188476562501	374.3187255859374	-1391.91845703125	222.098861694336	333.109161376953	-1333.698608398438	198.6174468994141	260.0211486816405	-1439.205932617188	222.3363037109376	266.4881896972655	-1331.127807617188	62.17653274536134	269.6083984374999	-1337.691528320313	62.08546447753908	324.2763366699218	-1392.993408203125	91.41798400878908	366.5945739746093	-1094.714111328125	1510.467529296875	221.0113067626952	-1151.872802734375	1281.746826171875	232.8760528564452	-920.0170898437502	1284.77880859375	246.284194946289	-978.5355224609377	1434.717407226563	234.9125671386718	-1175.162719726563	1301.12548828125	140.9136962890624	-1146.018676757813	1427.787963867188	134.2681121826171	-1091.657592773438	1431.084106445313	47.50296783447253	-1050.40966796875	1431.9921875	27.00912666320789	-1082.672485351563	1102.06201171875	-42.83413696289077	-1118.451293945313	1090.40625	38.72838211059558	-1123.11767578125	1072.8583984375	-19.91769790649428	-972.0623168945315	856.779235839844	6.717307567596318	-1011.576782226563	846.744812011719	-59.58768463134779	-942.7681274414065	767.9237670898439	7.192605972289925	-1024.954956054688	775.4177246093752	-55.66102218627944	-1184.593017578125	1318.490844726563	313.8644104003905	-1158.239501953125	1440.072021484375	306.2862854003906	-1126.6787109375	1452.106201171875	403.6291809082031	-1097.596435546875	1451.5546875	440.3698425292969	-1118.558837890625	1122.350341796875	512.9207153320312	-1147.650390625	1113.335693359375	446.1580200195312	-1151.846557617188	1090.408813476563	481.3375549316406	-974.2209472656253	890.356628417969	476.6730651855469	-1040.0673828125	876.6223144531252	524.4630126953125	-939.6621704101566	808.6008911132815	478.4479064941406	-1029.053833007813	803.1350708007815	530.06103515625	
31	0.3	-936.1304931640627	1000.80810546875	131.4717864990234	-1122.796142578125	1012.903747558594	178.4685058593749	-1133.90234375	1011.590026855469	275.5832824707031	-972.8360595703127	992.9567871093752	372.3327331542968	-1006.305053710938	907.917663574219	62.34132766723622	-920.7691650390627	490.9307250976564	106.4209976196288	-931.701843261719	487.3313598632814	224.0538635253906	-928.0067138671877	418.7904663085939	102.6278915405273	-873.7836914062502	413.7140502929689	165.3778839111327	-955.9998168945315	78.55563354492189	169.7792663574218	-925.9990844726565	90.13072967529298	259.9726562499999	-1003.870788574219	25.93575096130372	216.1427612304687	-799.0180664062502	18.9892807006836	232.5222778320312	-798.7803955078127	37.63616180419923	170.6772918701171	-855.6802368164065	26.66532897949219	124.1430282592773	-1085.428344726563	898.1988525390627	400.7408752441406	-1071.433227539063	484.0730590820314	412.1279296875	-1021.937622070313	459.7278747558595	296.9928283691406	-1113.9462890625	440.1124572753907	414.9070434570312	-1055.593505859375	380.5405883789063	376.6130981445312	-1379.012329101563	228.8594360351563	332.5999145507811	-1320.61474609375	203.7133941650391	260.2150268554686	-1425.868041992188	230.0349731445313	265.3791198730468	-1321.01123046875	66.58131408691408	273.1065063476561	-1328.91455078125	66.39807128906251	327.2038269042968	-1384.18359375	99.13466644287112	367.7866210937499	-1086.712036132813	1510.964965820313	219.4317016601562	-1144.198486328125	1282.358032226563	231.419204711914	-912.032897949219	1285.240478515625	245.4972991943359	-970.6118774414065	1435.10986328125	233.8978729248046	-1166.968872070313	1301.645141601563	138.9837341308593	-1137.591552734375	1428.255004882813	132.4679565429686	-1082.779663085938	1431.333618164063	45.95442962646472	-1041.31005859375	1432.169799804688	25.69045257568347	-1071.590209960938	1102.289672851563	-45.2324256896974	-1108.24365234375	1090.219848632813	35.95406341552722	-1111.967895507813	1072.681762695313	-22.70343971252455	-959.3511352539065	857.8240966796877	4.922772407531622	-998.4110107421877	847.494567871094	-61.59612655639662	-928.7445068359377	769.5037231445315	5.237631320953256	-1010.8779296875	776.0076293945315	-57.93078231811537	-1177.17333984375	1319.099853515625	312.0356445312499	-1150.765869140625	1440.715576171875	304.4869079589843	-1119.662231445313	1452.667602539063	401.9815063476562	-1090.667236328125	1452.159545898438	438.8734741210938	-1112	1123.003295898438	511.2581176757812	-1140.613159179688	1113.906982421875	444.3588562011719	-1145.234985351563	1091.156860351563	479.4851989746094	-968.0337524414066	890.5806884765627	476.6203308105469	-1034.2626953125	877.103210449219	523.9335327148438	-933.6645507812503	808.757751464844	478.9311218261719	-1023.37158203125	803.5826416015627	529.8167114257812	
32	0.31	-928.9752197265627	1001.0712890625	130.5474243164062	-1115.602172851563	1013.354187011719	177.6653594970702	-1126.756225585938	1011.937255859375	274.7727661132812	-965.6522216796877	993.6268310546877	371.3174133300781	-999.6956787109377	908.1826782226565	61.55416107177724	-917.5509033203127	490.6448974609376	106.0229187011718	-928.4642333984377	487.2398986816407	223.6795959472656	-925.2956542968752	418.4891662597657	102.3878097534179	-871.0137939453127	413.1782836914064	165.1351318359374	-955.7549438476565	78.5320281982422	169.8971405029296	-925.8944091796877	90.02551269531251	260.1331176757812	-1003.872680664063	25.96809387207032	216.1767883300781	-799.0046386718752	18.92047119140625	232.5682983398437	-798.7050781250002	37.57405471801759	170.7329101562499	-855.6270751953127	26.68896293640137	124.2168350219726	-1077.720947265625	898.582458496094	400.1673278808594	-1055.526489257813	484.5207824707032	413.9686889648438	-1005.553955078125	460.323455810547	298.9244079589843	-1097.820678710938	441.2468872070314	416.8276977539062	-1039.692260742188	381.0573120117188	378.6648559570312	-1365.434204101563	235.1296081542969	331.9894104003905	-1306.88330078125	208.4809265136719	260.2744140624999	-1411.948486328125	236.8556060791016	264.2253112792968	-1309.42431640625	70.77955627441408	276.9775085449218	-1318.70166015625	70.77552795410158	330.5025634765624	-1373.98486328125	106.6900787353516	369.2210693359374	-1078.795288085938	1511.501342773438	217.9533386230468	-1136.654296875	1283.0087890625	230.0338897705077	-904.1404418945315	1285.722534179688	244.7636413574218	-962.793884277344	1435.507446289063	232.9389953613281	-1158.941772460938	1302.242431640625	137.1486206054686	-1129.314331054688	1428.786010742188	130.7633056640624	-1074.051635742188	1431.613403320313	44.49963378906237	-1032.359008789063	1432.379638671875	24.45394706726062	-1060.396606445313	1102.533813476563	-47.52469635009779	-1097.843017578125	1090.00341796875	33.22692108154284	-1100.699584960938	1072.506469726563	-25.38606071472182	-946.4497070312502	858.9365844726565	3.178835868835334	-985.0095214843752	848.3498535156252	-63.56981277465834	-914.4870605468752	771.1798095703127	3.298791170120128	-996.5238037109377	776.7108154296877	-60.24495697021498	-1169.86376953125	1319.757446289063	310.3056640624999	-1143.372436523438	1441.396362304688	302.7851562499999	-1112.707275390625	1453.246704101563	400.4234619140625	-1083.811645507813	1452.773681640625	437.4605712890625	-1105.56201171875	1123.661010742188	509.57666015625	-1133.61767578125	1114.46484375	442.5328063964844	-1138.626220703125	1091.855590820313	477.6092529296875	-961.8178100585941	890.8655395507815	476.6466979980469	-1028.4775390625	877.596130371094	523.3717651367188	-927.5857543945316	808.9981079101565	479.5535278320312	-1017.695434570313	804.0551757812502	529.5372314453125	
33	0.32	-921.9584960937502	1001.330444335938	129.6269531249999	-1108.5458984375	1013.79931640625	176.8993682861327	-1119.727661132813	1012.349853515625	274.0107116699218	-958.5413818359377	994.3796997070315	370.3099670410156	-993.2341918945315	908.401062011719	60.82444763183583	-914.5493774414065	490.3565979003907	105.6548995971679	-925.4261474609377	487.1228942871095	223.3294525146484	-922.7794189453127	418.2002868652345	102.1774444580077	-868.4289550781252	412.6745910644532	164.8903198242187	-955.5457153320315	78.5174026489258	170.0239105224609	-925.8134765625002	89.92980194091798	260.3013916015624	-1003.873962402344	26.00482368469239	216.2191009521484	-799.000671386719	18.85544204711914	232.6223907470703	-798.6409912109377	37.53011322021485	170.7982788085937	-855.575866699219	26.73333930969239	124.2952804565429	-1070.0625	899.091491699219	399.6883239746094	-1039.617553710938	485.2085571289064	415.672607421875	-989.4317626953127	461.303680419922	300.6009216308593	-1081.673217773438	442.4761352539064	418.541748046875	-1023.659912109375	381.8666381835938	380.4738464355468	-1351.197631835938	240.7602844238282	331.340362548828	-1292.50830078125	212.8019104003907	260.2499084472655	-1397.478881835938	242.6506500244141	263.1041259765624	-1296.36572265625	74.64965057373048	281.1034851074218	-1306.979858398438	75.09436035156251	334.0712280273436	-1362.326904296875	113.8559875488282	370.888458251953	-1070.96826171875	1512.085083007813	216.5785217285155	-1129.227172851563	1283.70068359375	228.7112579345702	-896.347595214844	1286.234985351563	244.0736846923828	-955.0830078125002	1435.925659179688	232.0247192382812	-1151.07421875	1302.922607421875	135.4056396484374	-1121.196411132813	1429.385498046875	129.159210205078	-1065.494262695313	1431.945556640625	43.13826370239246	-1023.586853027344	1432.651123046875	23.29546737670886	-1049.12158203125	1102.817504882813	-49.685817718506	-1087.252685546875	1089.787963867188	30.59155082702624	-1089.339965820313	1072.357788085938	-27.92930984497085	-933.3733520507815	860.1460571289065	1.494313001632576	-971.3977661132815	849.344177246094	-65.49300384521497	-900.041442871094	772.9677734375002	1.384682536125073	-981.929870605469	777.5670166015627	-62.58731460571303	-1162.651733398438	1320.468994140625	308.6767578124999	-1136.050048828125	1442.118041992188	301.1852416992187	-1105.795776367188	1453.854614257813	398.9559936523438	-1077.01123046875	1453.40673828125	436.1272888183594	-1099.237182617188	1124.339721679688	507.8959655761719	-1126.674438476563	1115.03125	440.7025451660156	-1132.032836914063	1092.528198242188	475.73193359375	-955.5822753906253	891.222351074219	476.7412719726562	-1022.716613769532	878.1136474609377	522.7728881835938	-921.4448242187503	809.3292236328127	480.2869873046875	-1012.041076660157	804.5635986328127	529.205810546875	
